Coordinates
version=1
nRows=9
nColumns=36
inDegrees=yes

Units are S.I. units (second, meters, Newtons, ...)
If the header above contains a line with 'inDegrees', this indicates whether rotational values are in degrees (yes) or radians (no).

endheader
time	pelvis_tilt	pelvis_list	pelvis_rotation	pelvis_tx	pelvis_ty	pelvis_tz	hip_flexion_r	hip_adduction_r	hip_rotation_r	knee_angle_r	knee_angle_r_beta	ankle_angle_r	subtalar_angle_r	mtp_angle_r	hip_flexion_l	hip_adduction_l	hip_rotation_l	knee_angle_l	knee_angle_l_beta	ankle_angle_l	subtalar_angle_l	mtp_angle_l	lumbar_extension	lumbar_bending	lumbar_rotation	arm_flex_r	arm_add_r	arm_rot_r	elbow_flex_r	pro_sup_r	arm_flex_l	arm_add_l	arm_rot_l	elbow_flex_l	pro_sup_l
     30.30000000	     -3.70718151	     -6.25403709	     -7.40602007	      0.66538317	      0.92795463	      0.77322286	     12.30517606	     10.21582096	      2.27888410	     15.08623684	      0.26330450	     12.05464028	     -5.56178640	     -7.49999987	     14.20691210	     -9.71160377	     -5.46131299	     62.66027272	      1.09362807	      6.37810612	    -15.11990805	     -7.49999987	      1.19407079	      6.68082963	      4.18110166	      4.52905559	    -17.18898066	     18.12687289	     15.44674976	    104.12485738	      2.76936338	    -10.16130101	     23.78696199	     10.17437528	    107.62596207
     30.31666670	     -2.91817837	     -5.54488394	     -7.28901375	      0.66198555	      0.92922421	      0.77531407	     10.05285603	      9.41245028	      2.43425978	     14.07079201	      0.24558165	     12.33494230	     -4.92688536	     -7.49999987	     16.21364448	     -8.90525587	     -4.94781545	     63.87482329	      1.11482598	      6.23015224	    -15.58003910	     -7.49999987	     -0.32092402	      5.60382777	      4.85378771	      5.15209872	    -17.33011338	     18.01258640	     16.75632615	    103.30050839	      3.02644046	    -10.50217832	     24.78708445	     10.20047974	    107.94281005
     30.33333330	     -2.01292554	     -4.73922500	     -7.22406367	      0.65971876	      0.92962550	      0.77737039	      7.91982318	      8.47394180	      2.55681067	     13.32257154	      0.23252274	     12.58896034	     -4.48765670	     -7.49999987	     17.97181172	     -8.01023426	     -4.69538637	     63.94290896	      1.11601429	      6.65765419	    -15.43683058	     -7.49999987	     -2.06644648	      4.41212799	      5.52527896	      6.14582574	    -17.51884073	     18.40884363	     17.72094672	    101.54046480	      3.38594674	    -10.90785177	     26.48105101	     10.43945428	    106.53636209
     30.35000000	     -1.28857094	     -3.80297243	     -7.22482069	      0.65816308	      0.92940004	      0.77871528	      6.29437985	      7.39421931	      2.31700268	     13.05736939	      0.22789409	     12.95604824	     -3.92836662	     -7.49999987	     19.51613708	     -7.05501275	     -4.82762924	     62.75214166	      1.09523148	      7.13292120	    -15.31956093	     -7.49999987	     -3.45600582	      3.05105196	      6.14254587	      6.89427563	    -17.47480798	     16.50979829	     19.15911973	    104.27207672	      3.63974182	    -11.40750341	     27.12763868	     10.84505597	    107.68664615
     30.36666670	     -0.55228735	     -2.96566831	     -7.32828646	      0.65597767	      0.92878140	      0.77897151	      4.70866296	      6.44487459	      2.52911923	     12.87239940	      0.22466575	     12.98957997	     -4.29944560	     -7.49999987	     20.49810756	     -6.18534402	     -5.21429080	     60.43518212	      1.05479291	      7.40822316	    -15.21680332	     -7.49999987	     -4.81088706	      1.89331099	      6.75038694	      7.94741311	    -17.55443705	     16.25367865	     20.11444145	    100.47393219	      3.87754424	    -11.63317964	     27.23399007	     11.07710441	    103.96098082
     30.38333330	      0.08227167	     -2.18835957	     -7.45549501	      0.65310032	      0.92715207	      0.77846850	      3.41706787	      5.45861924	      1.98705025	     13.05497374	      0.22785228	     13.57324872	     -3.41256962	     -7.49999987	     21.19888823	     -5.39890993	     -5.81191586	     57.38497061	      1.00155668	      8.12055093	    -14.37553341	     -7.49999987	     -5.97567914	      0.88404479	      6.94178692	      9.18481112	    -17.71394633	     15.67781317	     21.57024178	    105.06178417	      3.84640022	    -12.08963376	     27.41323531	     11.92071394	    107.44156256
     30.40000000	      0.45831138	     -1.54327510	     -7.60505103	      0.65033081	      0.92446236	      0.77763832	      2.46377746	      4.64809060	      1.56782077	     13.33370221	      0.23271701	     13.90115390	     -3.13079793	     -7.49999987	     21.97254027	     -4.73585874	     -6.42813576	     53.88718365	      0.94050878	      8.72770648	    -13.63601777	     -7.49999987	     -6.71704948	      0.11069987	      7.16875781	     10.32135375	    -17.89111222	     16.05667244	     22.60266020	    103.86915649	      3.92913250	    -12.24702435	     28.09756823	     12.13032402	    106.21784530
     30.41666670	      0.62847041	     -0.99518564	     -7.78065739	      0.64721171	      0.92155439	      0.77650548	      1.73077877	      3.94620022	      1.13108083	     13.57218232	      0.23687927	     14.19252959	     -2.92377232	     -7.49999987	     22.84219628	     -4.17705289	     -7.02986554	     50.07350666	      0.87394756	      8.87750597	    -13.10174885	     -7.49999987	     -7.17457321	     -0.49440466	      7.34841432	     11.28553021	    -18.10586101	     16.51860969	     23.66821107	    104.22217274	      3.84853907	    -12.43499763	     28.72175778	     12.75215485	    106.30652404
     30.43333330	      0.54143651	     -0.51794504	     -7.99399859	      0.64304811	      0.91979179	      0.77516156	      1.18560641	      3.39079114	      1.04944960	     13.56356059	      0.23672879	     14.22990325	     -3.36685959	     -7.49999987	     23.85802098	     -3.77418827	     -7.69537297	     46.06504091	      0.80398663	      8.65219572	    -12.46936267	     -7.49999987	     -7.24180711	     -0.95036037	      7.68692414	     11.82760935	    -18.22960485	     16.06644905	     24.78020047	    102.78217699	      3.71900571	    -12.42904637	     28.33705359	     13.25029262	    104.84030965
